<?xml version="1.0" encoding="UTF-8" standalone="no"?>
<!-- Created with Inkscape (http://www.inkscape.org/) -->

<svg
   width="1024"
   height="1024"
   viewBox="0 0 270.93333 270.93333"
   version="1.1"
   id="svg1"
   inkscape:version="1.4.4 (dcaf3e7d9e, 2026-05-05)"
   sodipodi:docname="icon-hires.svg"
   inkscape:export-filename="icon.png"
   inkscape:export-xdpi="96"
   inkscape:export-ydpi="96"
   xmlns:inkscape="http://www.inkscape.org/namespaces/inkscape"
   xmlns:sodipodi="http://sodipodi.sourceforge.net/DTD/sodipodi-0.dtd"
   xmlns="http://www.w3.org/2000/svg"
   xmlns:svg="http://www.w3.org/2000/svg">
  <sodipodi:namedview
     id="namedview1"
     pagecolor="#ffffff"
     bordercolor="#000000"
     borderopacity="0.25"
     inkscape:showpageshadow="2"
     inkscape:pageopacity="0.0"
     inkscape:pagecheckerboard="0"
     inkscape:deskcolor="#d1d1d1"
     inkscape:document-units="mm"
     inkscape:zoom="0.34609638"
     inkscape:cx="1110.9622"
     inkscape:cy="325.05396"
     inkscape:window-width="1920"
     inkscape:window-height="990"
     inkscape:window-x="0"
     inkscape:window-y="0"
     inkscape:window-maximized="1"
     inkscape:current-layer="layer1"
     showgrid="false" />
  <defs
     id="defs1" />
  <g
     inkscape:label="Layer 1"
     inkscape:groupmode="layer"
     id="layer1">
    <rect
       style="fill:#0d3b2e;fill-opacity:1;stroke-width:58.6434;stroke-linecap:square;paint-order:markers stroke fill"
       id="rect1"
       width="270.93335"
       height="270.93335"
       x="9.5367405e-08"
       y="9.5367447e-08" />
    <path
       style="font-size:338.667px;line-height:0;font-family:'LHF Bostonian 3 SC';-inkscape-font-specification:'LHF Bostonian 3 SC';letter-spacing:4.62812px;word-spacing:0px;fill:#e8dcc4;stroke-width:6.04249;stroke-linecap:square;paint-order:markers stroke fill"
       d="m 116.51138,195.92198 c 2.25584,-2.36367 3.54493,-2.90097 5.04884,-2.90097 4.83439,0 12.56899,11.06496 30.07958,11.06496 18.69213,0 36.31043,-9.99022 36.31043,-33.73185 0,-42.54094 -53.17629,-48.66399 -53.17629,-84.222318 0,-12.246634 7.30504,-21.055606 19.76643,-21.055606 10.31268,0 17.61776,5.263885 17.61776,14.180319 0,3.652449 -1.18147,6.767864 -1.18147,12.461412 0,7.305053 2.90055,12.891043 6.33784,12.891043 1.61152,0 2.68586,-0.96665 2.68586,-2.47055 0,-1.28919 -0.96674,-2.25603 -2.25584,-2.25603 -1.2891,0 -1.82628,1.18165 -1.82628,1.18165 0,0 -2.57825,-1.71883 -2.57825,-9.883195 0,-13.213481 10.52761,-23.418985 10.52761,-23.418985 l -1.18148,-1.074272 c -2.2562,2.255989 -3.4377,2.900529 -5.04919,2.900529 -4.18969,0 -9.02377,-7.090158 -23.09656,-7.090158 -18.79969,0 -32.22781,12.461502 -32.22781,29.434864 0,38.028917 52.20903,41.896357 52.20903,84.222567 0,13.9653 -7.51984,25.45994 -22.88179,25.45994 -12.24672,0 -21.70025,-6.66062 -21.70025,-19.87398 0,-7.09023 2.68576,-12.67631 2.68576,-23.31119 0,-12.13959 -4.18967,-19.01471 -7.51979,-19.01471 -1.61151,0 -2.68581,0.9668 -2.68581,2.36363 0,1.28907 0.85947,2.25565 2.25617,2.25565 1.18155,0 1.82645,-1.18189 1.82645,-1.18189 0,0 3.75957,3.54532 3.75957,15.79191 0,20.19604 -14.82481,36.2027 -14.82481,36.2027 z"
       id="path2" />
    <path
       d="m 107.49226,202.85208 c 0,0 -1.56327,0.74049 -3.53794,0.74049 -2.30377,0 -4.442993,-0.82277 -4.442993,-5.59488 V 60.018051 c 0,-11.025207 14.234033,-17.031477 14.234033,-28.138961 0,-2.879719 -1.48099,-4.360717 -3.04427,-4.360717 -1.23417,0 -2.05694,0.905055 -2.05694,1.892387 0,0.987332 0.65822,1.810108 1.81011,1.810108 0.82277,0 1.31644,-0.575943 1.31644,-0.575943 0,0 0.41139,0.740499 0.41139,2.303774 0,9.379654 -18.4302,23.202301 -35.461676,28.87946 l 0.411388,1.151888 c 0,0 3.949328,-1.480998 6.33538,-1.480998 2.386052,0 4.360716,0.822776 4.360716,5.594881 v 139.78975 c -8.227766,0 -13.987203,3.20883 -13.987203,8.72143 0,1.56328 0.658222,2.63289 0.658222,2.63289 0.32911,-2.55061 4.113883,-5.5126 13.822647,-5.5126 22.955466,0 55.126036,30.68956 81.948556,30.68956 16.53781,0 26.82252,-9.46193 26.82252,-23.03774 0,-10.6961 -6.66449,-17.6897 -16.37326,-17.6897 -6.33538,0 -11.0252,4.36072 -11.0252,9.46193 0,3.53794 2.05694,5.75944 4.68982,5.75944 0.98733,0 1.481,-0.41139 1.481,-0.41139 0,0 0.49367,0.24683 1.23416,0.24683 1.72784,0 2.05695,-1.39872 2.05695,-1.39872 -2.13922,0 -3.53794,-1.97466 -3.53794,-4.27844 0,-3.45566 2.46833,-6.00627 6.91132,-6.00627 7.24044,0 13.16443,5.51261 13.16443,14.48087 0,10.94293 -7.48727,20.07575 -23.77825,20.07575 -23.44913,0 -49.44887,-26.16429 -74.214452,-32.4174 2.715162,-1.39872 6.993602,-3.37338 10.202432,-4.19616 z"
       id="path1"
       style="font-size:246.833px;line-height:0;font-family:'LHF Bostonian 3 SC';-inkscape-font-specification:'LHF Bostonian 3 SC';letter-spacing:4.62812px;word-spacing:0px;fill:#e8dcc4;stroke-width:6.34965;stroke-linecap:square;paint-order:markers stroke fill" />
  </g>
</svg>
